# xmcd CD database file
#
# Track frame offsets:
#	150
#	16925
#	33690
#	49750
#	68337
#	83302
#	101820
#	114937
#	126102
#	141607
#	154917
#
# Disc length: 2267 seconds
#
# Revision: 0
# Processed by: cddbd v1.5PL3 Copyright (c) Steve Scherf et al.
# Submitted via: CDex 1.51
#
DISCID=8a08d90b
DTITLE=Various Artist - Autumnatic Adds
DYEAR=1989
DGENRE=Country
TTITLE0=Kennard And John - Thrill Of Love
TTITLE1=Cee Cee Chapman - Love Is A Liar
TTITLE2=Moe Bandy - This Night Won't Last Forever
TTITLE3=The Judds - One Man Woman
TTITLE4=Johnny Lee - I Can Be A Heartbreaker, Too
TTITLE5=Desert Rose Band - Start All Over Again
TTITLE6=Jann Brown - Tell Me Why
TTITLE7=Ronnie McDowell - She's A Little Past Forty
TTITLE8=Bobby Vinton - It's Been One Of Those Days
TTITLE9=Marie Osmond - Slowly But Surely
TTITLE10=The Bellamy Brothers - The Center Of My Universe
EXTD=YEAR: 1989
EXTT0=
EXTT1=
EXTT2=
EXTT3=
EXTT4=
EXTT5=
EXTT6=
EXTT7=
EXTT8=
EXTT9=
EXTT10=
PLAYORDER=
